<svg width="32" height="32" viewBox="0 0 32 32" fill="none" xmlns="http://www.w3.org/2000/svg">
<path d="M16 0.166656C24.7448 0.166656 31.8334 7.25524 31.8334 16C31.8334 24.7447 24.7448 31.8333 16 31.8333C7.25527 31.8333 0.166687 24.7447 0.166687 16C0.166687 7.25524 7.25527 0.166656 16 0.166656ZM16 3.33332C12.6406 3.33332 9.4188 4.66784 7.04333 7.0433C4.66787 9.41877 3.33335 12.6406 3.33335 16C3.33335 19.3594 4.66787 22.5812 7.04333 24.9567C9.4188 27.3321 12.6406 28.6667 16 28.6667C19.3594 28.6667 22.5812 27.3321 24.9567 24.9567C27.3322 22.5812 28.6667 19.3594 28.6667 16C28.6667 12.6406 27.3322 9.41877 24.9567 7.0433C22.5812 4.66784 19.3594 3.33332 16 3.33332ZM22.0689 8.61691C22.2506 8.48951 22.4713 8.43031 22.6923 8.44971C22.9133 8.46912 23.1204 8.56589 23.277 8.72299C23.4334 8.87932 23.5292 9.08604 23.5474 9.30637C23.5657 9.52671 23.5052 9.74638 23.3768 9.92632C19.9251 14.7492 18.0251 17.3332 17.6799 17.6799C17.2341 18.1249 16.6299 18.3748 16 18.3748C15.3701 18.3748 14.766 18.1249 14.3201 17.6799C13.8752 17.2341 13.6253 16.6299 13.6253 16C13.6253 15.3701 13.8752 14.7659 14.3201 14.3201C14.9123 13.7295 17.4947 11.8279 22.0689 8.61691ZM24.7084 14.4167C25.1283 14.4167 25.531 14.5835 25.8279 14.8804C26.1249 15.1773 26.2917 15.5801 26.2917 16C26.2917 16.4199 26.1249 16.8226 25.8279 17.1196C25.531 17.4165 25.1283 17.5833 24.7084 17.5833C24.2884 17.5833 23.8857 17.4165 23.5888 17.1196C23.2918 16.8226 23.125 16.4199 23.125 16C23.125 15.5801 23.2918 15.1773 23.5888 14.8804C23.8857 14.5835 24.2884 14.4167 24.7084 14.4167ZM7.29169 14.4167C7.71161 14.4167 8.11434 14.5835 8.41127 14.8804C8.70821 15.1773 8.87502 15.5801 8.87502 16C8.87502 16.4199 8.70821 16.8226 8.41127 17.1196C8.11434 17.4165 7.71161 17.5833 7.29169 17.5833C6.87176 17.5833 6.46903 17.4165 6.1721 17.1196C5.87517 16.8226 5.70835 16.4199 5.70835 16C5.70835 15.5801 5.87517 15.1773 6.1721 14.8804C6.46903 14.5835 6.87176 14.4167 7.29169 14.4167ZM10.9619 8.72299C11.2587 9.0203 11.4254 9.42337 11.4251 9.84353C11.4248 10.2637 11.2576 10.6665 10.9603 10.9634C10.663 11.2603 10.2599 11.4269 9.83973 11.4266C9.41957 11.4263 9.01674 11.2591 8.71985 10.9618C8.57285 10.8146 8.45628 10.6399 8.3768 10.4476C8.29732 10.2554 8.25649 10.0493 8.25664 9.84129C8.25679 9.63324 8.29791 9.42727 8.37766 9.23512C8.45741 9.04297 8.57423 8.86841 8.72144 8.72141C9.01874 8.42452 9.42181 8.2579 9.84197 8.25819C10.05 8.25834 10.256 8.29946 10.4481 8.37921C10.6403 8.45896 10.8148 8.57578 10.9619 8.72299ZM16 5.70832C16.4199 5.70832 16.8227 5.87514 17.1196 6.17207C17.4165 6.469 17.5834 6.87173 17.5834 7.29166C17.5834 7.71158 17.4165 8.11431 17.1196 8.41124C16.8227 8.70817 16.4199 8.87499 16 8.87499C15.5801 8.87499 15.1774 8.70817 14.8804 8.41124C14.5835 8.11431 14.4167 7.71158 14.4167 7.29166C14.4167 6.87173 14.5835 6.469 14.8804 6.17207C15.1774 5.87514 15.5801 5.70832 16 5.70832Z" fill="#B1B1BC"/>
</svg>
