<svg width="50" height="50" viewBox="0 0 50 50" fill="none" xmlns="http://www.w3.org/2000/svg">
<circle cx="25" cy="25" r="25" fill="#2D9AD8"/>
<path d="M15.9771 31.128C14.8571 31.128 13.8437 30.8827 12.9371 30.392C12.0411 29.8907 11.3371 29.208 10.8251 28.344C10.3131 27.4693 10.0571 26.488 10.0571 25.4C10.0571 24.312 10.3131 23.336 10.8251 22.472C11.3371 21.5973 12.0464 20.9147 12.9531 20.424C13.8597 19.9227 14.8731 19.672 15.9931 19.672C16.8677 19.672 17.6677 19.8213 18.3931 20.12C19.1184 20.408 19.7371 20.84 20.2491 21.416L19.2091 22.424C18.3664 21.5387 17.3157 21.096 16.0571 21.096C15.2251 21.096 14.4731 21.2827 13.8011 21.656C13.1291 22.0293 12.6011 22.5467 12.2171 23.208C11.8437 23.8587 11.6571 24.5893 11.6571 25.4C11.6571 26.2107 11.8437 26.9467 12.2171 27.608C12.6011 28.2587 13.1291 28.7707 13.8011 29.144C14.4731 29.5173 15.2251 29.704 16.0571 29.704C17.3051 29.704 18.3557 29.256 19.2091 28.36L20.2491 29.368C19.7371 29.944 19.1131 30.3813 18.3771 30.68C17.6517 30.9787 16.8517 31.128 15.9771 31.128ZM32.1636 19.8V31H30.5636V26.008H24.1316V31H22.5316V19.8H24.1316V24.616H30.5636V19.8H32.1636ZM40.2839 31.016H38.9879V32.6H37.8839V31.016H34.1879V30.264L37.4039 25.96H38.6519L35.5479 30.088H37.9799V28.76H38.9879V30.088H40.2839V31.016Z" fill="white"/>
</svg>
