<svg width="50" height="50" viewBox="0 0 50 50" fill="none" xmlns="http://www.w3.org/2000/svg">
<circle cx="25" cy="25" r="25" fill="#FC7A7A"/>
<path d="M15.8677 31.128C14.7477 31.128 13.7344 30.8827 12.8277 30.392C11.9317 29.8907 11.2277 29.208 10.7157 28.344C10.2037 27.4693 9.94769 26.488 9.94769 25.4C9.94769 24.312 10.2037 23.336 10.7157 22.472C11.2277 21.5973 11.937 20.9147 12.8437 20.424C13.7504 19.9227 14.7637 19.672 15.8837 19.672C16.7584 19.672 17.5584 19.8213 18.2837 20.12C19.009 20.408 19.6277 20.84 20.1397 21.416L19.0997 22.424C18.257 21.5387 17.2064 21.096 15.9477 21.096C15.1157 21.096 14.3637 21.2827 13.6917 21.656C13.0197 22.0293 12.4917 22.5467 12.1077 23.208C11.7344 23.8587 11.5477 24.5893 11.5477 25.4C11.5477 26.2107 11.7344 26.9467 12.1077 27.608C12.4917 28.2587 13.0197 28.7707 13.6917 29.144C14.3637 29.5173 15.1157 29.704 15.9477 29.704C17.1957 29.704 18.2464 29.256 19.0997 28.36L20.1397 29.368C19.6277 29.944 19.0037 30.3813 18.2677 30.68C17.5424 30.9787 16.7424 31.128 15.8677 31.128ZM27.2438 31.128C26.1131 31.128 25.0945 30.8827 24.1878 30.392C23.2811 29.8907 22.5665 29.2027 22.0438 28.328C21.5318 27.4533 21.2758 26.4773 21.2758 25.4C21.2758 24.3227 21.5318 23.3467 22.0438 22.472C22.5665 21.5973 23.2811 20.9147 24.1878 20.424C25.0945 19.9227 26.1131 19.672 27.2438 19.672C28.3638 19.672 29.3771 19.9227 30.2838 20.424C31.1905 20.9147 31.8998 21.5973 32.4118 22.472C32.9238 23.336 33.1798 24.312 33.1798 25.4C33.1798 26.488 32.9238 27.4693 32.4118 28.344C31.8998 29.208 31.1905 29.8907 30.2838 30.392C29.3771 30.8827 28.3638 31.128 27.2438 31.128ZM27.2438 29.704C28.0651 29.704 28.8011 29.5173 29.4518 29.144C30.1131 28.7707 30.6305 28.2587 31.0038 27.608C31.3878 26.9467 31.5798 26.2107 31.5798 25.4C31.5798 24.5893 31.3878 23.8587 31.0038 23.208C30.6305 22.5467 30.1131 22.0293 29.4518 21.656C28.8011 21.2827 28.0651 21.096 27.2438 21.096C26.4225 21.096 25.6758 21.2827 25.0038 21.656C24.3425 22.0293 23.8198 22.5467 23.4358 23.208C23.0625 23.8587 22.8758 24.5893 22.8758 25.4C22.8758 26.2107 23.0625 26.9467 23.4358 27.608C23.8198 28.2587 24.3425 28.7707 25.0038 29.144C25.6758 29.5173 26.4225 29.704 27.2438 29.704ZM40.0253 31.672V32.6H34.6813V31.88L37.6413 29.288C38.0146 28.9573 38.2653 28.6907 38.3933 28.488C38.532 28.2747 38.6013 28.0613 38.6013 27.848C38.6013 27.5493 38.468 27.3093 38.2013 27.128C37.9346 26.936 37.5346 26.84 37.0013 26.84C36.6066 26.84 36.2546 26.904 35.9453 27.032C35.636 27.1493 35.38 27.3253 35.1773 27.56L34.3933 26.952C34.9586 26.2373 35.8546 25.88 37.0813 25.88C37.924 25.88 38.5746 26.056 39.0333 26.408C39.492 26.76 39.7213 27.2133 39.7213 27.768C39.7213 28.1093 39.636 28.4293 39.4653 28.728C39.2946 29.0267 38.9693 29.3893 38.4893 29.816L36.3773 31.672H40.0253Z" fill="white"/>
</svg>
