<svg width="50" height="50" viewBox="0 0 50 50" fill="none" xmlns="http://www.w3.org/2000/svg">
<circle cx="25" cy="25" r="25" fill="#4BBEAA"/>
<path d="M21.5798 31.128C20.4491 31.128 19.4304 30.8827 18.5238 30.392C17.6171 29.8907 16.9024 29.2027 16.3798 28.328C15.8678 27.4533 15.6118 26.4773 15.6118 25.4C15.6118 24.3227 15.8678 23.3467 16.3798 22.472C16.9024 21.5973 17.6171 20.9147 18.5238 20.424C19.4304 19.9227 20.4491 19.672 21.5798 19.672C22.6998 19.672 23.7131 19.9227 24.6198 20.424C25.5264 20.9147 26.2358 21.5973 26.7478 22.472C27.2598 23.336 27.5158 24.312 27.5158 25.4C27.5158 26.488 27.2598 27.4693 26.7478 28.344C26.2358 29.208 25.5264 29.8907 24.6198 30.392C23.7131 30.8827 22.6998 31.128 21.5798 31.128ZM21.5798 29.704C22.4011 29.704 23.1371 29.5173 23.7878 29.144C24.4491 28.7707 24.9664 28.2587 25.3398 27.608C25.7238 26.9467 25.9158 26.2107 25.9158 25.4C25.9158 24.5893 25.7238 23.8587 25.3398 23.208C24.9664 22.5467 24.4491 22.0293 23.7878 21.656C23.1371 21.2827 22.4011 21.096 21.5798 21.096C20.7584 21.096 20.0118 21.2827 19.3398 21.656C18.6784 22.0293 18.1558 22.5467 17.7718 23.208C17.3984 23.8587 17.2118 24.5893 17.2118 25.4C17.2118 26.2107 17.3984 26.9467 17.7718 27.608C18.1558 28.2587 18.6784 28.7707 19.3398 29.144C20.0118 29.5173 20.7584 29.704 21.5798 29.704ZM34.3613 31.672V32.6H29.0173V31.88L31.9773 29.288C32.3506 28.9573 32.6013 28.6907 32.7293 28.488C32.8679 28.2747 32.9373 28.0613 32.9373 27.848C32.9373 27.5493 32.8039 27.3093 32.5373 27.128C32.2706 26.936 31.8706 26.84 31.3373 26.84C30.9426 26.84 30.5906 26.904 30.2812 27.032C29.9719 27.1493 29.7159 27.3253 29.5133 27.56L28.7293 26.952C29.2946 26.2373 30.1906 25.88 31.4173 25.88C32.2599 25.88 32.9106 26.056 33.3693 26.408C33.8279 26.76 34.0573 27.2133 34.0573 27.768C34.0573 28.1093 33.9719 28.4293 33.8013 28.728C33.6306 29.0267 33.3053 29.3893 32.8253 29.816L30.7133 31.672H34.3613Z" fill="white"/>
</svg>
