<svg width="38" height="38" viewBox="0 0 38 38" fill="none" xmlns="http://www.w3.org/2000/svg">
<path fill-rule="evenodd" clip-rule="evenodd" d="M33.25 4.75H4.75C4.12011 4.75 3.51602 5.00022 3.07062 5.44562C2.62522 5.89102 2.375 6.49511 2.375 7.125V33.25C2.375 33.8799 2.62522 34.484 3.07062 34.9294C3.51602 35.3748 4.12011 35.625 4.75 35.625H33.25C33.8799 35.625 34.484 35.3748 34.9294 34.9294C35.3748 34.484 35.625 33.8799 35.625 33.25V7.125C35.625 6.49511 35.3748 5.89102 34.9294 5.44562C34.484 5.00022 33.8799 4.75 33.25 4.75ZM4.75 2.375C3.49022 2.375 2.28204 2.87545 1.39124 3.76624C0.500445 4.65704 0 5.86522 0 7.125L0 33.25C0 34.5098 0.500445 35.718 1.39124 36.6088C2.28204 37.4996 3.49022 38 4.75 38H33.25C34.5098 38 35.718 37.4996 36.6088 36.6088C37.4996 35.718 38 34.5098 38 33.25V7.125C38 5.86522 37.4996 4.65704 36.6088 3.76624C35.718 2.87545 34.5098 2.375 33.25 2.375H4.75Z" fill="#9AAABA"/>
<path fill-rule="evenodd" clip-rule="evenodd" d="M33.25 4.75H4.75C4.12011 4.75 3.51602 5.00022 3.07062 5.44562C2.62522 5.89102 2.375 6.49511 2.375 7.125V9.5H35.625V7.125C35.625 6.49511 35.3748 5.89102 34.9294 5.44562C34.484 5.00022 33.8799 4.75 33.25 4.75ZM4.75 2.375C3.49022 2.375 2.28204 2.87545 1.39124 3.76624C0.500445 4.65704 0 5.86522 0 7.125L0 11.875H38V7.125C38 5.86522 37.4996 4.65704 36.6088 3.76624C35.718 2.87545 34.5098 2.375 33.25 2.375H4.75Z" fill="#9AAABA"/>
<path fill-rule="evenodd" clip-rule="evenodd" d="M8.3125 0C8.62744 0 8.92949 0.125111 9.15219 0.347811C9.37489 0.57051 9.5 0.872555 9.5 1.1875V2.375C9.5 2.68994 9.37489 2.99199 9.15219 3.21469C8.92949 3.43739 8.62744 3.5625 8.3125 3.5625C7.99756 3.5625 7.69551 3.43739 7.47281 3.21469C7.25011 2.99199 7.125 2.68994 7.125 2.375V1.1875C7.125 0.872555 7.25011 0.57051 7.47281 0.347811C7.69551 0.125111 7.99756 0 8.3125 0V0ZM29.6875 0C30.0024 0 30.3045 0.125111 30.5272 0.347811C30.7499 0.57051 30.875 0.872555 30.875 1.1875V2.375C30.875 2.68994 30.7499 2.99199 30.5272 3.21469C30.3045 3.43739 30.0024 3.5625 29.6875 3.5625C29.3726 3.5625 29.0705 3.43739 28.8478 3.21469C28.6251 2.99199 28.5 2.68994 28.5 2.375V1.1875C28.5 0.872555 28.6251 0.57051 28.8478 0.347811C29.0705 0.125111 29.3726 0 29.6875 0V0Z" fill="#9AAABA"/>
<path d="M29.6875 16.625H27.3125C26.6567 16.625 26.125 17.1567 26.125 17.8125V20.1875C26.125 20.8433 26.6567 21.375 27.3125 21.375H29.6875C30.3433 21.375 30.875 20.8433 30.875 20.1875V17.8125C30.875 17.1567 30.3433 16.625 29.6875 16.625Z" fill="#9AAABA"/>
</svg>
