<svg width="25" height="38" viewBox="0 0 25 38" fill="none" xmlns="http://www.w3.org/2000/svg">
<path d="M0.225769 33.25V38H23.9758V33.25C23.9758 30.6771 23.2336 28.265 21.7492 26.0137C20.2648 23.7624 18.3599 22.2161 16.0344 21.375V19.668C17.4693 18.9258 18.6196 17.8496 19.4855 16.4395C20.3514 15.0293 20.7844 13.5078 20.7844 11.875V8.68359C20.7844 6.30859 19.9308 4.26758 18.2238 2.56055C16.5168 0.853516 14.4758 0 12.1008 0C9.72577 0 7.67238 0.853516 5.94061 2.56055C4.20884 4.26758 3.34296 6.30859 3.34296 8.68359V11.875C3.34296 13.5078 3.7759 15.0293 4.64178 16.4395C5.50767 17.8496 6.65806 18.9258 8.09296 19.668V21.375C5.81692 22.2161 3.93671 23.75 2.45233 25.9766C0.967957 28.2031 0.225769 30.6276 0.225769 33.25ZM20.7844 33.25V34.8086H3.34296V33.25C3.34296 31.4688 3.82538 29.7988 4.79022 28.2402C5.75507 26.6816 7.02915 25.5065 8.61249 24.7148C9.3052 26.1992 10.468 26.9414 12.1008 26.9414C13.6346 26.9414 14.7974 26.1992 15.5891 24.7148C17.1229 25.5065 18.3723 26.694 19.3371 28.2773C20.3019 29.8607 20.7844 31.5182 20.7844 33.25ZM17.4445 7.94141C13.6346 7.64453 10.6411 6.53125 8.46405 4.60156C9.55259 3.66146 10.7648 3.19141 12.1008 3.19141C13.4367 3.19141 14.6242 3.64909 15.6633 4.56445C16.7023 5.47982 17.2961 6.60547 17.4445 7.94141ZM6.53436 8.68359C6.53436 8.23828 6.63332 7.71875 6.83124 7.125C9.84947 9.5 13.4367 10.8112 17.593 11.0586V11.875C17.593 13.4089 17.0487 14.7201 15.9601 15.8086C14.8716 16.8971 13.5851 17.4414 12.1008 17.4414C10.5669 17.4414 9.25572 16.8971 8.16718 15.8086C7.07863 14.7201 6.53436 13.4089 6.53436 11.875V8.68359ZM12.1008 20.5586H12.843V22.9336C12.843 23.4779 12.5956 23.75 12.1008 23.75C11.5565 23.75 11.2844 23.4779 11.2844 22.9336V20.5586H12.1008Z" fill="#9AAABA"/>
</svg>
